<svg width="233" height="78" viewBox="0 0 233 78" fill="none" xmlns="http://www.w3.org/2000/svg">
<rect width="233" height="78" rx="15" fill="white" fill-opacity="0.75"/>
<path d="M45.6675 27.1666H43.1438L39.375 40.5H41.3025L42.1725 37.375H46.515L47.3625 40.5H49.3537L45.6675 27.1666ZM42.4256 36.0366L44.3325 28.75H44.4169L46.2619 36.0383L42.4256 36.0366ZM51.0712 40.5V27.1666H52.9462V40.5H51.0712ZM51.4219 42.1666H37.5V25.5H56.25V33.4666C58.4689 32.1922 61.1535 31.7233 63.75 32.1566V28.8333H60V25.5C59.997 24.6167 59.601 23.7704 58.8984 23.1459C58.1958 22.5213 57.2436 22.1693 56.25 22.1666H52.5V18.8333H48.75V22.1666H45V18.8333H41.25V22.1666H37.5C36.5064 22.1693 35.5542 22.5213 34.8516 23.1459C34.149 23.7704 33.753 24.6167 33.75 25.5V28.8333H30V32.1666H33.75V35.5H30V38.8333H33.75V42.1666C33.753 43.0499 34.149 43.8962 34.8516 44.5208C35.5542 45.1453 36.5064 45.4973 37.5 45.5H41.25V48.8333H45V45.5H48.75V48.8333H52.5V45.5133C51.9077 44.4677 51.542 43.3324 51.4219 42.1666ZM55.3125 41.3333C55.3125 40.1796 55.6974 39.0518 56.4185 38.0925C57.1396 37.1332 58.1645 36.3855 59.3636 35.944C60.5628 35.5025 61.8823 35.387 63.1553 35.6121C64.4283 35.8371 65.5976 36.3927 66.5154 37.2085C67.4332 38.0243 68.0582 39.0637 68.3114 40.1953C68.5646 41.3268 68.4347 42.4997 67.938 43.5656C67.4413 44.6315 66.6001 45.5426 65.5209 46.1836C64.4417 46.8245 63.1729 47.1666 61.875 47.1666C60.1345 47.1666 58.4653 46.5521 57.2346 45.4581C56.0039 44.3641 55.3125 42.8804 55.3125 41.3333ZM61.875 50.5C57.495 50.5 48.75 52.455 48.75 56.3333V58.8333H75V56.3333C75 52.4533 66.255 50.5 61.875 50.5Z" fill="#013A56"/>
<path d="M102.007 25V13.8H106.727C107.921 13.8 108.972 14.0347 109.879 14.504C110.796 14.9733 111.505 15.6293 112.007 16.472C112.519 17.3147 112.775 18.2907 112.775 19.4C112.775 20.5093 112.519 21.4853 112.007 22.328C111.505 23.1707 110.796 23.8267 109.879 24.296C108.972 24.7653 107.921 25 106.727 25H102.007ZM103.607 23.608H106.631C107.559 23.608 108.359 23.432 109.031 23.08C109.713 22.728 110.241 22.2373 110.615 21.608C110.988 20.968 111.175 20.232 111.175 19.4C111.175 18.5573 110.988 17.8213 110.615 17.192C110.241 16.5627 109.713 16.072 109.031 15.72C108.359 15.368 107.559 15.192 106.631 15.192H103.607V23.608ZM114.681 25V16.52H116.217V25H114.681ZM115.449 14.888C115.151 14.888 114.9 14.792 114.697 14.6C114.505 14.408 114.409 14.1733 114.409 13.896C114.409 13.608 114.505 13.368 114.697 13.176C114.9 12.984 115.151 12.888 115.449 12.888C115.748 12.888 115.993 12.984 116.185 13.176C116.388 13.3573 116.489 13.5867 116.489 13.864C116.489 14.152 116.393 14.3973 116.201 14.6C116.009 14.792 115.759 14.888 115.449 14.888ZM122.542 28.2C121.763 28.2 121.006 28.088 120.27 27.864C119.545 27.6507 118.953 27.3413 118.494 26.936L119.23 25.752C119.625 26.0933 120.11 26.36 120.686 26.552C121.262 26.7547 121.865 26.856 122.494 26.856C123.497 26.856 124.233 26.6213 124.702 26.152C125.171 25.6827 125.406 24.968 125.406 24.008V22.216L125.566 20.536L125.486 18.84V16.52H126.942V23.848C126.942 25.3413 126.569 26.44 125.822 27.144C125.075 27.848 123.982 28.2 122.542 28.2ZM122.35 24.648C121.529 24.648 120.793 24.4773 120.142 24.136C119.502 23.784 118.99 23.2987 118.606 22.68C118.233 22.0613 118.046 21.3467 118.046 20.536C118.046 19.7147 118.233 19 118.606 18.392C118.99 17.7733 119.502 17.2933 120.142 16.952C120.793 16.6107 121.529 16.44 122.35 16.44C123.075 16.44 123.737 16.5893 124.334 16.888C124.931 17.176 125.406 17.624 125.758 18.232C126.121 18.84 126.302 19.608 126.302 20.536C126.302 21.4533 126.121 22.216 125.758 22.824C125.406 23.432 124.931 23.8907 124.334 24.2C123.737 24.4987 123.075 24.648 122.35 24.648ZM122.526 23.304C123.091 23.304 123.593 23.1867 124.03 22.952C124.467 22.7173 124.809 22.392 125.054 21.976C125.31 21.56 125.438 21.08 125.438 20.536C125.438 19.992 125.31 19.512 125.054 19.096C124.809 18.68 124.467 18.36 124.03 18.136C123.593 17.9013 123.091 17.784 122.526 17.784C121.961 17.784 121.454 17.9013 121.006 18.136C120.569 18.36 120.222 18.68 119.966 19.096C119.721 19.512 119.598 19.992 119.598 20.536C119.598 21.08 119.721 21.56 119.966 21.976C120.222 22.392 120.569 22.7173 121.006 22.952C121.454 23.1867 121.961 23.304 122.526 23.304ZM129.557 25V16.52H131.093V25H129.557ZM130.325 14.888C130.026 14.888 129.776 14.792 129.573 14.6C129.381 14.408 129.285 14.1733 129.285 13.896C129.285 13.608 129.381 13.368 129.573 13.176C129.776 12.984 130.026 12.888 130.325 12.888C130.624 12.888 130.869 12.984 131.061 13.176C131.264 13.3573 131.365 13.5867 131.365 13.864C131.365 14.152 131.269 14.3973 131.077 14.6C130.885 14.792 130.634 14.888 130.325 14.888ZM136.618 25.096C135.764 25.096 135.103 24.8667 134.634 24.408C134.164 23.9493 133.93 23.2933 133.93 22.44V14.664H135.466V22.376C135.466 22.8347 135.578 23.1867 135.802 23.432C136.036 23.6773 136.367 23.8 136.794 23.8C137.274 23.8 137.674 23.6667 137.994 23.4L138.474 24.504C138.239 24.7067 137.956 24.856 137.626 24.952C137.306 25.048 136.97 25.096 136.618 25.096ZM132.49 17.784V16.52H137.898V17.784H132.49ZM145.275 25V23.208L145.195 22.872V19.816C145.195 19.1653 145.003 18.664 144.619 18.312C144.245 17.9493 143.68 17.768 142.923 17.768C142.421 17.768 141.931 17.8533 141.451 18.024C140.971 18.184 140.565 18.4027 140.235 18.68L139.595 17.528C140.032 17.176 140.555 16.9093 141.163 16.728C141.781 16.536 142.427 16.44 143.099 16.44C144.261 16.44 145.157 16.7227 145.787 17.288C146.416 17.8533 146.731 18.7173 146.731 19.88V25H145.275ZM142.491 25.096C141.861 25.096 141.307 24.9893 140.827 24.776C140.357 24.5627 139.995 24.2693 139.739 23.896C139.483 23.512 139.355 23.08 139.355 22.6C139.355 22.1413 139.461 21.7253 139.675 21.352C139.899 20.9787 140.256 20.68 140.747 20.456C141.248 20.232 141.92 20.12 142.763 20.12H145.451V21.224H142.827C142.059 21.224 141.541 21.352 141.275 21.608C141.008 21.864 140.875 22.1733 140.875 22.536C140.875 22.952 141.04 23.288 141.371 23.544C141.701 23.7893 142.16 23.912 142.747 23.912C143.323 23.912 143.824 23.784 144.251 23.528C144.688 23.272 145.003 22.8987 145.195 22.408L145.499 23.464C145.296 23.9653 144.939 24.3653 144.427 24.664C143.915 24.952 143.269 25.096 142.491 25.096ZM149.253 25V13.128H150.789V25H149.253ZM160.307 25V20.712L160.675 21.704L155.859 13.8H157.571L161.619 20.472H160.691L164.755 13.8H166.339L161.539 21.704L161.891 20.712V25H160.307ZM170.097 25.096C169.244 25.096 168.486 24.9093 167.825 24.536C167.164 24.1627 166.641 23.6507 166.257 23C165.873 22.3387 165.681 21.592 165.681 20.76C165.681 19.9173 165.873 19.1707 166.257 18.52C166.641 17.8693 167.164 17.3627 167.825 17C168.486 16.6267 169.244 16.44 170.097 16.44C170.94 16.44 171.692 16.6267 172.353 17C173.025 17.3627 173.548 17.8693 173.921 18.52C174.305 19.16 174.497 19.9067 174.497 20.76C174.497 21.6027 174.305 22.3493 173.921 23C173.548 23.6507 173.025 24.1627 172.353 24.536C171.692 24.9093 170.94 25.096 170.097 25.096ZM170.097 23.752C170.641 23.752 171.126 23.6293 171.553 23.384C171.99 23.1387 172.332 22.792 172.577 22.344C172.822 21.8853 172.945 21.3573 172.945 20.76C172.945 20.152 172.822 19.6293 172.577 19.192C172.332 18.744 171.99 18.3973 171.553 18.152C171.126 17.9067 170.641 17.784 170.097 17.784C169.553 17.784 169.068 17.9067 168.641 18.152C168.214 18.3973 167.873 18.744 167.617 19.192C167.361 19.6293 167.233 20.152 167.233 20.76C167.233 21.3573 167.361 21.8853 167.617 22.344C167.873 22.792 168.214 23.1387 168.641 23.384C169.068 23.6293 169.553 23.752 170.097 23.752ZM179.869 25.096C179.144 25.096 178.504 24.9627 177.949 24.696C177.405 24.4293 176.979 24.024 176.669 23.48C176.371 22.9253 176.221 22.232 176.221 21.4V16.52H177.757V21.224C177.757 22.056 177.955 22.68 178.349 23.096C178.755 23.512 179.32 23.72 180.045 23.72C180.579 23.72 181.043 23.6133 181.437 23.4C181.832 23.176 182.136 22.856 182.349 22.44C182.563 22.0133 182.669 21.5013 182.669 20.904V16.52H184.205V25H182.749V22.712L182.989 23.32C182.712 23.8853 182.296 24.3227 181.741 24.632C181.187 24.9413 180.563 25.096 179.869 25.096Z" fill="#013A56"/>
<path d="M106.512 43V35.368H103.56V34.6H110.352V35.368H107.4V43H106.512ZM111.187 43V36.7H112.003V38.416L111.919 38.116C112.095 37.636 112.391 37.272 112.807 37.024C113.223 36.768 113.739 36.64 114.355 36.64V37.468C114.323 37.468 114.291 37.468 114.259 37.468C114.227 37.46 114.195 37.456 114.163 37.456C113.499 37.456 112.979 37.66 112.603 38.068C112.227 38.468 112.039 39.04 112.039 39.784V43H111.187ZM115.987 45.388C115.691 45.388 115.407 45.34 115.135 45.244C114.871 45.148 114.643 45.004 114.451 44.812L114.847 44.176C115.007 44.328 115.179 44.444 115.363 44.524C115.555 44.612 115.767 44.656 115.999 44.656C116.279 44.656 116.519 44.576 116.719 44.416C116.927 44.264 117.123 43.992 117.307 43.6L117.715 42.676L117.811 42.544L120.403 36.7H121.243L118.087 43.756C117.911 44.164 117.715 44.488 117.499 44.728C117.291 44.968 117.063 45.136 116.815 45.232C116.567 45.336 116.291 45.388 115.987 45.388ZM117.667 43.18L114.763 36.7H115.651L118.219 42.484L117.667 43.18ZM127.671 43.06C127.063 43.06 126.515 42.924 126.027 42.652C125.547 42.372 125.167 41.992 124.887 41.512C124.607 41.024 124.467 40.468 124.467 39.844C124.467 39.212 124.607 38.656 124.887 38.176C125.167 37.696 125.547 37.32 126.027 37.048C126.507 36.776 127.055 36.64 127.671 36.64C128.295 36.64 128.847 36.776 129.327 37.048C129.815 37.32 130.195 37.696 130.467 38.176C130.747 38.656 130.887 39.212 130.887 39.844C130.887 40.468 130.747 41.024 130.467 41.512C130.195 41.992 129.815 42.372 129.327 42.652C128.839 42.924 128.287 43.06 127.671 43.06ZM127.671 42.304C128.127 42.304 128.531 42.204 128.883 42.004C129.235 41.796 129.511 41.508 129.711 41.14C129.919 40.764 130.023 40.332 130.023 39.844C130.023 39.348 129.919 38.916 129.711 38.548C129.511 38.18 129.235 37.896 128.883 37.696C128.531 37.488 128.131 37.384 127.683 37.384C127.235 37.384 126.835 37.488 126.483 37.696C126.131 37.896 125.851 38.18 125.643 38.548C125.435 38.916 125.331 39.348 125.331 39.844C125.331 40.332 125.435 40.764 125.643 41.14C125.851 41.508 126.131 41.796 126.483 42.004C126.835 42.204 127.231 42.304 127.671 42.304ZM134.991 43.06C134.455 43.06 133.987 42.96 133.587 42.76C133.187 42.56 132.875 42.26 132.651 41.86C132.435 41.46 132.327 40.96 132.327 40.36V36.7H133.179V40.264C133.179 40.936 133.343 41.444 133.671 41.788C134.007 42.124 134.475 42.292 135.075 42.292C135.515 42.292 135.895 42.204 136.215 42.028C136.543 41.844 136.791 41.58 136.959 41.236C137.135 40.892 137.223 40.48 137.223 40V36.7H138.075V43H137.259V41.272L137.391 41.584C137.191 42.048 136.879 42.412 136.455 42.676C136.039 42.932 135.551 43.06 134.991 43.06ZM140.209 43V36.7H141.025V38.416L140.941 38.116C141.117 37.636 141.413 37.272 141.829 37.024C142.245 36.768 142.761 36.64 143.377 36.64V37.468C143.345 37.468 143.313 37.468 143.281 37.468C143.249 37.46 143.217 37.456 143.185 37.456C142.521 37.456 142.001 37.66 141.625 38.068C141.249 38.468 141.061 39.04 141.061 39.784V43H140.209ZM150.254 43.06C149.646 43.06 149.098 42.924 148.61 42.652C148.13 42.372 147.75 41.992 147.47 41.512C147.19 41.024 147.05 40.468 147.05 39.844C147.05 39.212 147.19 38.656 147.47 38.176C147.75 37.696 148.13 37.32 148.61 37.048C149.09 36.776 149.638 36.64 150.254 36.64C150.878 36.64 151.43 36.776 151.91 37.048C152.398 37.32 152.778 37.696 153.05 38.176C153.33 38.656 153.47 39.212 153.47 39.844C153.47 40.468 153.33 41.024 153.05 41.512C152.778 41.992 152.398 42.372 151.91 42.652C151.422 42.924 150.87 43.06 150.254 43.06ZM150.254 42.304C150.71 42.304 151.114 42.204 151.466 42.004C151.818 41.796 152.094 41.508 152.294 41.14C152.502 40.764 152.606 40.332 152.606 39.844C152.606 39.348 152.502 38.916 152.294 38.548C152.094 38.18 151.818 37.896 151.466 37.696C151.114 37.488 150.714 37.384 150.266 37.384C149.818 37.384 149.418 37.488 149.066 37.696C148.714 37.896 148.434 38.18 148.226 38.548C148.018 38.916 147.914 39.348 147.914 39.844C147.914 40.332 148.018 40.764 148.226 41.14C148.434 41.508 148.714 41.796 149.066 42.004C149.418 42.204 149.814 42.304 150.254 42.304ZM158.186 36.64C158.698 36.64 159.146 36.74 159.53 36.94C159.922 37.132 160.226 37.428 160.442 37.828C160.666 38.228 160.778 38.732 160.778 39.34V43H159.926V39.424C159.926 38.76 159.758 38.26 159.422 37.924C159.094 37.58 158.63 37.408 158.03 37.408C157.582 37.408 157.19 37.5 156.854 37.684C156.526 37.86 156.27 38.12 156.086 38.464C155.91 38.8 155.822 39.208 155.822 39.688V43H154.97V36.7H155.786V38.428L155.654 38.104C155.854 37.648 156.174 37.292 156.614 37.036C157.054 36.772 157.578 36.64 158.186 36.64ZM162.839 43V34.096H163.691V43H162.839ZM165.822 43V36.7H166.674V43H165.822ZM166.254 35.308C166.078 35.308 165.93 35.248 165.81 35.128C165.69 35.008 165.63 34.864 165.63 34.696C165.63 34.528 165.69 34.388 165.81 34.276C165.93 34.156 166.078 34.096 166.254 34.096C166.43 34.096 166.578 34.152 166.698 34.264C166.818 34.376 166.878 34.516 166.878 34.684C166.878 34.86 166.818 35.008 166.698 35.128C166.586 35.248 166.438 35.308 166.254 35.308ZM172.02 36.64C172.532 36.64 172.98 36.74 173.364 36.94C173.756 37.132 174.06 37.428 174.276 37.828C174.5 38.228 174.612 38.732 174.612 39.34V43H173.76V39.424C173.76 38.76 173.592 38.26 173.256 37.924C172.928 37.58 172.464 37.408 171.864 37.408C171.416 37.408 171.024 37.5 170.688 37.684C170.36 37.86 170.104 38.12 169.92 38.464C169.744 38.8 169.656 39.208 169.656 39.688V43H168.804V36.7H169.62V38.428L169.488 38.104C169.688 37.648 170.008 37.292 170.448 37.036C170.888 36.772 171.412 36.64 172.02 36.64ZM179.35 43.06C178.694 43.06 178.118 42.924 177.622 42.652C177.126 42.372 176.738 41.992 176.458 41.512C176.178 41.024 176.038 40.468 176.038 39.844C176.038 39.22 176.17 38.668 176.434 38.188C176.706 37.708 177.074 37.332 177.538 37.06C178.01 36.78 178.538 36.64 179.122 36.64C179.714 36.64 180.238 36.776 180.694 37.048C181.158 37.312 181.522 37.688 181.786 38.176C182.05 38.656 182.182 39.212 182.182 39.844C182.182 39.884 182.178 39.928 182.17 39.976C182.17 40.016 182.17 40.06 182.17 40.108H176.686V39.472H181.714L181.378 39.724C181.378 39.268 181.278 38.864 181.078 38.512C180.886 38.152 180.622 37.872 180.286 37.672C179.95 37.472 179.562 37.372 179.122 37.372C178.69 37.372 178.302 37.472 177.958 37.672C177.614 37.872 177.346 38.152 177.154 38.512C176.962 38.872 176.866 39.284 176.866 39.748V39.88C176.866 40.36 176.97 40.784 177.178 41.152C177.394 41.512 177.69 41.796 178.066 42.004C178.45 42.204 178.886 42.304 179.374 42.304C179.758 42.304 180.114 42.236 180.442 42.1C180.778 41.964 181.066 41.756 181.306 41.476L181.786 42.028C181.506 42.364 181.154 42.62 180.73 42.796C180.314 42.972 179.854 43.06 179.35 43.06ZM116.857 60V58.608L116.821 58.38V56.052C116.821 55.516 116.669 55.104 116.365 54.816C116.069 54.528 115.625 54.384 115.033 54.384C114.625 54.384 114.237 54.452 113.869 54.588C113.501 54.724 113.189 54.904 112.933 55.128L112.549 54.492C112.869 54.22 113.253 54.012 113.701 53.868C114.149 53.716 114.621 53.64 115.117 53.64C115.933 53.64 116.561 53.844 117.001 54.252C117.449 54.652 117.673 55.264 117.673 56.088V60H116.857ZM114.685 60.06C114.213 60.06 113.801 59.984 113.449 59.832C113.105 59.672 112.841 59.456 112.657 59.184C112.473 58.904 112.381 58.584 112.381 58.224C112.381 57.896 112.457 57.6 112.609 57.336C112.769 57.064 113.025 56.848 113.377 56.688C113.737 56.52 114.217 56.436 114.817 56.436H116.989V57.072H114.841C114.233 57.072 113.809 57.18 113.569 57.396C113.337 57.612 113.221 57.88 113.221 58.2C113.221 58.56 113.361 58.848 113.641 59.064C113.921 59.28 114.313 59.388 114.817 59.388C115.297 59.388 115.709 59.28 116.053 59.064C116.405 58.84 116.661 58.52 116.821 58.104L117.013 58.692C116.853 59.108 116.573 59.44 116.173 59.688C115.781 59.936 115.285 60.06 114.685 60.06ZM121.44 60.06C120.92 60.06 120.428 59.988 119.964 59.844C119.5 59.692 119.136 59.504 118.872 59.28L119.256 58.608C119.512 58.8 119.84 58.968 120.24 59.112C120.64 59.248 121.06 59.316 121.5 59.316C122.1 59.316 122.532 59.224 122.796 59.04C123.06 58.848 123.192 58.596 123.192 58.284C123.192 58.052 123.116 57.872 122.964 57.744C122.82 57.608 122.628 57.508 122.388 57.444C122.148 57.372 121.88 57.312 121.584 57.264C121.288 57.216 120.992 57.16 120.696 57.096C120.408 57.032 120.144 56.94 119.904 56.82C119.664 56.692 119.468 56.52 119.316 56.304C119.172 56.088 119.1 55.8 119.1 55.44C119.1 55.096 119.196 54.788 119.388 54.516C119.58 54.244 119.86 54.032 120.228 53.88C120.604 53.72 121.06 53.64 121.596 53.64C122.004 53.64 122.412 53.696 122.82 53.808C123.228 53.912 123.564 54.052 123.828 54.228L123.456 54.912C123.176 54.72 122.876 54.584 122.556 54.504C122.236 54.416 121.916 54.372 121.596 54.372C121.028 54.372 120.608 54.472 120.336 54.672C120.072 54.864 119.94 55.112 119.94 55.416C119.94 55.656 120.012 55.844 120.156 55.98C120.308 56.116 120.504 56.224 120.744 56.304C120.992 56.376 121.26 56.436 121.548 56.484C121.844 56.532 122.136 56.592 122.424 56.664C122.72 56.728 122.988 56.82 123.228 56.94C123.476 57.052 123.672 57.216 123.816 57.432C123.968 57.64 124.044 57.916 124.044 58.26C124.044 58.628 123.94 58.948 123.732 59.22C123.532 59.484 123.236 59.692 122.844 59.844C122.46 59.988 121.992 60.06 121.44 60.06ZM127.059 60.06C126.539 60.06 126.047 59.988 125.583 59.844C125.119 59.692 124.755 59.504 124.491 59.28L124.875 58.608C125.131 58.8 125.459 58.968 125.859 59.112C126.259 59.248 126.679 59.316 127.119 59.316C127.719 59.316 128.151 59.224 128.415 59.04C128.679 58.848 128.811 58.596 128.811 58.284C128.811 58.052 128.735 57.872 128.583 57.744C128.439 57.608 128.247 57.508 128.007 57.444C127.767 57.372 127.499 57.312 127.203 57.264C126.907 57.216 126.611 57.16 126.315 57.096C126.027 57.032 125.763 56.94 125.523 56.82C125.283 56.692 125.087 56.52 124.935 56.304C124.791 56.088 124.719 55.8 124.719 55.44C124.719 55.096 124.815 54.788 125.007 54.516C125.199 54.244 125.479 54.032 125.847 53.88C126.223 53.72 126.679 53.64 127.215 53.64C127.623 53.64 128.031 53.696 128.439 53.808C128.847 53.912 129.183 54.052 129.447 54.228L129.075 54.912C128.795 54.72 128.495 54.584 128.175 54.504C127.855 54.416 127.535 54.372 127.215 54.372C126.647 54.372 126.227 54.472 125.955 54.672C125.691 54.864 125.559 55.112 125.559 55.416C125.559 55.656 125.631 55.844 125.775 55.98C125.927 56.116 126.123 56.224 126.363 56.304C126.611 56.376 126.879 56.436 127.167 56.484C127.463 56.532 127.755 56.592 128.043 56.664C128.339 56.728 128.607 56.82 128.847 56.94C129.095 57.052 129.291 57.216 129.435 57.432C129.587 57.64 129.663 57.916 129.663 58.26C129.663 58.628 129.559 58.948 129.351 59.22C129.151 59.484 128.855 59.692 128.463 59.844C128.079 59.988 127.611 60.06 127.059 60.06ZM130.986 60V53.7H131.838V60H130.986ZM131.418 52.308C131.242 52.308 131.094 52.248 130.974 52.128C130.854 52.008 130.794 51.864 130.794 51.696C130.794 51.528 130.854 51.388 130.974 51.276C131.094 51.156 131.242 51.096 131.418 51.096C131.594 51.096 131.742 51.152 131.862 51.264C131.982 51.376 132.042 51.516 132.042 51.684C132.042 51.86 131.982 52.008 131.862 52.128C131.75 52.248 131.602 52.308 131.418 52.308ZM135.661 60.06C135.141 60.06 134.649 59.988 134.185 59.844C133.721 59.692 133.357 59.504 133.093 59.28L133.477 58.608C133.733 58.8 134.061 58.968 134.461 59.112C134.861 59.248 135.281 59.316 135.721 59.316C136.321 59.316 136.753 59.224 137.017 59.04C137.281 58.848 137.413 58.596 137.413 58.284C137.413 58.052 137.337 57.872 137.185 57.744C137.041 57.608 136.849 57.508 136.609 57.444C136.369 57.372 136.101 57.312 135.805 57.264C135.509 57.216 135.213 57.16 134.917 57.096C134.629 57.032 134.365 56.94 134.125 56.82C133.885 56.692 133.689 56.52 133.537 56.304C133.393 56.088 133.321 55.8 133.321 55.44C133.321 55.096 133.417 54.788 133.609 54.516C133.801 54.244 134.081 54.032 134.449 53.88C134.825 53.72 135.281 53.64 135.817 53.64C136.225 53.64 136.633 53.696 137.041 53.808C137.449 53.912 137.785 54.052 138.049 54.228L137.677 54.912C137.397 54.72 137.097 54.584 136.777 54.504C136.457 54.416 136.137 54.372 135.817 54.372C135.249 54.372 134.829 54.472 134.557 54.672C134.293 54.864 134.161 55.112 134.161 55.416C134.161 55.656 134.233 55.844 134.377 55.98C134.529 56.116 134.725 56.224 134.965 56.304C135.213 56.376 135.481 56.436 135.769 56.484C136.065 56.532 136.357 56.592 136.645 56.664C136.941 56.728 137.209 56.82 137.449 56.94C137.697 57.052 137.893 57.216 138.037 57.432C138.189 57.64 138.265 57.916 138.265 58.26C138.265 58.628 138.161 58.948 137.953 59.22C137.753 59.484 137.457 59.692 137.065 59.844C136.681 59.988 136.213 60.06 135.661 60.06ZM141.58 60.06C140.988 60.06 140.532 59.9 140.212 59.58C139.892 59.26 139.732 58.808 139.732 58.224V52.308H140.584V58.176C140.584 58.544 140.676 58.828 140.86 59.028C141.052 59.228 141.324 59.328 141.676 59.328C142.052 59.328 142.364 59.22 142.612 59.004L142.912 59.616C142.744 59.768 142.54 59.88 142.3 59.952C142.068 60.024 141.828 60.06 141.58 60.06ZM138.604 54.408V53.7H142.504V54.408H138.604ZM148.171 60V58.608L148.135 58.38V56.052C148.135 55.516 147.983 55.104 147.679 54.816C147.383 54.528 146.939 54.384 146.347 54.384C145.939 54.384 145.551 54.452 145.183 54.588C144.815 54.724 144.503 54.904 144.247 55.128L143.863 54.492C144.183 54.22 144.567 54.012 145.015 53.868C145.463 53.716 145.935 53.64 146.431 53.64C147.247 53.64 147.875 53.844 148.315 54.252C148.763 54.652 148.987 55.264 148.987 56.088V60H148.171ZM145.999 60.06C145.527 60.06 145.115 59.984 144.763 59.832C144.419 59.672 144.155 59.456 143.971 59.184C143.787 58.904 143.695 58.584 143.695 58.224C143.695 57.896 143.771 57.6 143.923 57.336C144.083 57.064 144.339 56.848 144.691 56.688C145.051 56.52 145.531 56.436 146.131 56.436H148.303V57.072H146.155C145.547 57.072 145.123 57.18 144.883 57.396C144.651 57.612 144.535 57.88 144.535 58.2C144.535 58.56 144.675 58.848 144.955 59.064C145.235 59.28 145.627 59.388 146.131 59.388C146.611 59.388 147.023 59.28 147.367 59.064C147.719 58.84 147.975 58.52 148.135 58.104L148.327 58.692C148.167 59.108 147.887 59.44 147.487 59.688C147.095 59.936 146.599 60.06 145.999 60.06ZM154.278 53.64C154.79 53.64 155.238 53.74 155.622 53.94C156.014 54.132 156.318 54.428 156.534 54.828C156.758 55.228 156.87 55.732 156.87 56.34V60H156.018V56.424C156.018 55.76 155.85 55.26 155.514 54.924C155.186 54.58 154.722 54.408 154.122 54.408C153.674 54.408 153.282 54.5 152.946 54.684C152.618 54.86 152.362 55.12 152.178 55.464C152.002 55.8 151.914 56.208 151.914 56.688V60H151.062V53.7H151.878V55.428L151.746 55.104C151.946 54.648 152.266 54.292 152.706 54.036C153.146 53.772 153.67 53.64 154.278 53.64ZM161.547 60.06C160.923 60.06 160.363 59.924 159.867 59.652C159.379 59.372 158.995 58.992 158.715 58.512C158.435 58.024 158.295 57.468 158.295 56.844C158.295 56.212 158.435 55.656 158.715 55.176C158.995 54.696 159.379 54.32 159.867 54.048C160.363 53.776 160.923 53.64 161.547 53.64C162.083 53.64 162.567 53.744 162.999 53.952C163.431 54.16 163.771 54.472 164.019 54.888L163.383 55.32C163.167 55 162.899 54.764 162.579 54.612C162.259 54.46 161.911 54.384 161.535 54.384C161.087 54.384 160.683 54.488 160.323 54.696C159.963 54.896 159.679 55.18 159.471 55.548C159.263 55.916 159.159 56.348 159.159 56.844C159.159 57.34 159.263 57.772 159.471 58.14C159.679 58.508 159.963 58.796 160.323 59.004C160.683 59.204 161.087 59.304 161.535 59.304C161.911 59.304 162.259 59.228 162.579 59.076C162.899 58.924 163.167 58.692 163.383 58.38L164.019 58.812C163.771 59.22 163.431 59.532 162.999 59.748C162.567 59.956 162.083 60.06 161.547 60.06ZM168.023 60.06C167.367 60.06 166.791 59.924 166.295 59.652C165.799 59.372 165.411 58.992 165.131 58.512C164.851 58.024 164.711 57.468 164.711 56.844C164.711 56.22 164.843 55.668 165.107 55.188C165.379 54.708 165.747 54.332 166.211 54.06C166.683 53.78 167.211 53.64 167.795 53.64C168.387 53.64 168.911 53.776 169.367 54.048C169.831 54.312 170.195 54.688 170.459 55.176C170.723 55.656 170.855 56.212 170.855 56.844C170.855 56.884 170.851 56.928 170.843 56.976C170.843 57.016 170.843 57.06 170.843 57.108H165.359V56.472H170.387L170.051 56.724C170.051 56.268 169.951 55.864 169.751 55.512C169.559 55.152 169.295 54.872 168.959 54.672C168.623 54.472 168.235 54.372 167.795 54.372C167.363 54.372 166.975 54.472 166.631 54.672C166.287 54.872 166.019 55.152 165.827 55.512C165.635 55.872 165.539 56.284 165.539 56.748V56.88C165.539 57.36 165.643 57.784 165.851 58.152C166.067 58.512 166.363 58.796 166.739 59.004C167.123 59.204 167.559 59.304 168.047 59.304C168.431 59.304 168.787 59.236 169.115 59.1C169.451 58.964 169.739 58.756 169.979 58.476L170.459 59.028C170.179 59.364 169.827 59.62 169.403 59.796C168.987 59.972 168.527 60.06 168.023 60.06ZM172.385 57.48L172.217 51.6H173.225L173.045 57.48H172.385ZM172.721 60.06C172.545 60.06 172.393 60 172.265 59.88C172.145 59.752 172.085 59.604 172.085 59.436C172.085 59.26 172.145 59.116 172.265 59.004C172.393 58.884 172.545 58.824 172.721 58.824C172.905 58.824 173.053 58.884 173.165 59.004C173.285 59.116 173.345 59.26 173.345 59.436C173.345 59.604 173.285 59.752 173.165 59.88C173.053 60 172.905 60.06 172.721 60.06Z" fill="black"/>
</svg>
