<svg width="19" height="22" viewBox="0 0 19 22" fill="none" xmlns="http://www.w3.org/2000/svg">
<path d="M18.786 13.8775L16.8077 11.8238V9.10346C16.8053 7.22356 16.1316 5.41133 14.9168 4.0172C13.702 2.62307 12.0324 1.74607 10.2308 1.55578V0H8.76923V1.55578C6.96765 1.74607 5.29802 2.62307 4.0832 4.0172C2.86837 5.41133 2.19465 7.22356 2.19231 9.10346V11.8238L0.214042 13.8775C0.0770139 14.0197 2.2008e-05 14.2126 0 14.4138V16.6897C0 16.8909 0.0769915 17.0838 0.214037 17.2261C0.351083 17.3684 0.536957 17.4483 0.730769 17.4483H5.84615V18.0376C5.83031 19 6.15711 19.9346 6.76392 20.6623C7.37073 21.3901 8.21488 21.8598 9.13462 21.9814C9.64261 22.0338 10.1555 21.9751 10.6404 21.8093C11.1252 21.6435 11.5713 21.3742 11.9499 21.0187C12.3284 20.6632 12.6311 20.2293 12.8385 19.7451C13.0458 19.2608 13.1533 18.7369 13.1538 18.2069V17.4483H18.2692C18.463 17.4483 18.6489 17.3684 18.786 17.2261C18.923 17.0838 19 16.8909 19 16.6897V14.4138C19 14.2126 18.923 14.0197 18.786 13.8775ZM11.6923 18.2069C11.6923 18.8105 11.4613 19.3894 11.0502 19.8162C10.6391 20.243 10.0814 20.4828 9.5 20.4828C8.91856 20.4828 8.36094 20.243 7.9498 19.8162C7.53867 19.3894 7.30769 18.8105 7.30769 18.2069V17.4483H11.6923V18.2069ZM17.5385 15.9311H1.46154V14.728L3.43973 12.6743C3.57679 12.5321 3.65381 12.3391 3.65385 12.1379V9.10346C3.65385 7.49387 4.26978 5.9502 5.36615 4.81205C6.46251 3.67389 7.9495 3.03449 9.5 3.03449C11.0505 3.03449 12.5375 3.67389 13.6339 4.81205C14.7302 5.9502 15.3462 7.49387 15.3462 9.10346V12.1379C15.3462 12.3391 15.4232 12.5321 15.5603 12.6743L17.5385 14.728V15.9311Z" fill="#013A56"/>
</svg>
