<svg width="48" height="46" viewBox="0 0 48 46" fill="none" xmlns="http://www.w3.org/2000/svg">
<path d="M36.5222 20.8334H11.4778C10.6616 20.8334 10 21.7549 10 22.8917V23.1084C10 24.2452 10.6616 25.1667 11.4778 25.1667H36.5222C37.3384 25.1667 38 24.2452 38 23.1084V22.8917C38 21.7549 37.3384 20.8334 36.5222 20.8334Z" fill="black"/>
<path d="M36.5222 31.6667H11.4778C10.6616 31.6667 10 32.5882 10 33.725V33.9417C10 35.0784 10.6616 36 11.4778 36H36.5222C37.3384 36 38 35.0784 38 33.9417V33.725C38 32.5882 37.3384 31.6667 36.5222 31.6667Z" fill="black"/>
<path d="M36.5222 10H11.4778C10.6616 10 10 10.9215 10 12.0583V12.275C10 13.4118 10.6616 14.3333 11.4778 14.3333H36.5222C37.3384 14.3333 38 13.4118 38 12.275V12.0583C38 10.9215 37.3384 10 36.5222 10Z" fill="black"/>
</svg>
