<svg width="37" height="36" viewBox="0 0 37 36" fill="none" xmlns="http://www.w3.org/2000/svg">
<path d="M4.97424 28.7877C4.97424 28.7877 8.87503 23.95 18.5 23.95C28.125 23.95 32.0259 28.7877 32.0259 28.7877M18.5 1C8.83501 1 1 8.61115 1 18C1 27.3888 8.83501 35 18.5 35C28.1649 35 36 27.3888 36 18C36 8.61115 28.1649 1 18.5 1ZM18.5 18C21.3996 18 23.75 15.7167 23.75 12.9C23.75 10.0834 21.3996 7.8 18.5 7.8C15.6004 7.8 13.25 10.0834 13.25 12.9C13.25 15.7167 15.6004 18 18.5 18Z" stroke="black" stroke-width="2" stroke-linecap="round" stroke-linejoin="round"/>
</svg>
